<svg height="2222" width="720" xmlns="http://www.w3.org/2000/svg">
<rect height="2222" fill="#555" width="720"></rect>
<text fill="#7f7" font-family="Courier New" font-size="12" xml:space="preserve">
<tspan x="10" y="26"></tspan>
<tspan x="10" y="42">&gt; npmdoc-qs@0.0.1 test /home/travis/build/npmdoc/node-npmdoc-qs</tspan>
<tspan x="10" y="58">&gt; (set -e; export PORT=$(utility2 shServerPortRandom); utility2 test test.js)</tspan>
<tspan x="10" y="74"></tspan>
<tspan x="10" y="90"></tspan>
<tspan x="10" y="106">[MODE_BUILD=npmTest] - 2017-03-25T12:20:30Z - npm-testing /home/travis/build/npmdoc/node-npmdoc-\</tspan>
<tspan x="10" y="122">qs</tspan>
<tspan x="10" y="138"></tspan>
<tspan x="10" y="154"></tspan>
<tspan x="10" y="170">covering $ /home/travis/.nvm/versions/node/v6.10.1/bin/node /home/travis/build/npmdoc/node-npmdo\</tspan>
<tspan x="10" y="186">c-qs/test.js</tspan>
<tspan x="10" y="202">merging file:///home/travis/build/npmdoc/node-npmdoc-qs/tmp/build/test-report.json to test-repor\</tspan>
<tspan x="10" y="218">t</tspan>
<tspan x="10" y="234">&gt; server listening on http-port 45256</tspan>
<tspan x="10" y="250">created apidoc file:///home/travis/build/npmdoc/node-npmdoc-qs/tmp/build/apidoc.html</tspan>
<tspan x="10" y="266"></tspan>
<tspan x="10" y="282"></tspan>
<tspan x="10" y="298">browserTest - created electron entry-page /home/travis/build/npmdoc/node-npmdoc-qs/tmp/electron.\</tspan>
<tspan x="10" y="314">15b05692d830.98fcddbe23c7d.html</tspan>
<tspan x="10" y="330"></tspan>
<tspan x="10" y="346">[node test-case 1 of 6 passed] - testCase_buildLib_default</tspan>
<tspan x="10" y="362">[node test-case 2 of 6 passed] - testCase_buildReadme_default</tspan>
<tspan x="10" y="378">[node test-case 3 of 6 passed] - testCase_buildTest_default</tspan>
<tspan x="10" y="394"></tspan>
<tspan x="10" y="410">browserTest - created electron entry-page /home/travis/build/npmdoc/node-npmdoc-qs/tmp/electron.\</tspan>
<tspan x="10" y="426">15b05692de40.4996a7f2dbecf.html</tspan>
<tspan x="10" y="442"></tspan>
<tspan x="10" y="458">Xlib:  extension "RANDR" missing on display ":99.0".</tspan>
<tspan x="10" y="474">Xlib:  extension "RANDR" missing on display ":99.0".</tspan>
<tspan x="10" y="490">&gt; server listening on http-port 52331</tspan>
<tspan x="10" y="506"></tspan>
<tspan x="10" y="522">/home/travis/build/npmdoc/node-npmdoc-qs/node_modules/utility2/lib.utility2.sh.html.js</tspan>
<tspan x="10" y="538"> #1 Line too long.</tspan>
<tspan x="10" y="554">    process.stdout.write('export npm_package_' + key.replace((/\W/g), '_') + '=' + JSON.stringif\</tspan>
<tspan x="10" y="570">y(value) + ';'); // Line 1445, Pos 116</tspan>
<tspan x="10" y="586"></tspan>
<tspan x="10" y="602">merging file:///home/travis/build/npmdoc/node-npmdoc-qs/tmp/build/test-report.json to test-repor\</tspan>
<tspan x="10" y="618">t</tspan>
<tspan x="10" y="634">Xlib:  extension "RANDR" missing on display ":99.0".</tspan>
<tspan x="10" y="650">[4843:0325/122031:WARNING:audio_manager.cc(314)] Multiple instances of AudioManager detected</tspan>
<tspan x="10" y="666">[4843:0325/122031:WARNING:audio_manager.cc(275)] Multiple instances of AudioManager detected</tspan>
<tspan x="10" y="682"></tspan>
<tspan x="10" y="698">/home/travis/build/npmdoc/node-npmdoc-qs/node_modules/utility2/lib.utility2.sh.html.js</tspan>
<tspan x="10" y="714"> #1 Line too long.</tspan>
<tspan x="10" y="730">    process.stdout.write('export npm_package_' + key.replace((/\W/g), '_') + '=' + JSON.stringif\</tspan>
<tspan x="10" y="746">y(value) + ';'); // Line 1445, Pos 116</tspan>
<tspan x="10" y="762"></tspan>
<tspan x="10" y="778">[4878:0325/122031:ERROR:sandbox_linux.cc(343)] InitializeSandbox() called with multiple threads \</tspan>
<tspan x="10" y="794">in process gpu-process. </tspan>
<tspan x="10" y="810">[4843:0325/122031:ERROR:browser_gpu_channel_host_factory.cc(131)] Failed to create channel.</tspan>
<tspan x="10" y="826">merging file:///home/travis/build/npmdoc/node-npmdoc-qs/tmp/build/test-report.json to test-repor\</tspan>
<tspan x="10" y="842">t</tspan>
<tspan x="10" y="858">Xlib:  extension "RANDR" missing on display ":99.0".</tspan>
<tspan x="10" y="874">[4854:0325/122032:WARNING:audio_manager.cc(314)] Multiple instances of AudioManager detected</tspan>
<tspan x="10" y="890">[4854:0325/122032:WARNING:audio_manager.cc(275)] Multiple instances of AudioManager detected</tspan>
<tspan x="10" y="906">[4908:0325/122032:ERROR:sandbox_linux.cc(343)] InitializeSandbox() called with multiple threads \</tspan>
<tspan x="10" y="922">in process gpu-process. </tspan>
<tspan x="10" y="938">[4854:0325/122032:ERROR:browser_gpu_channel_host_factory.cc(131)] Failed to create channel.</tspan>
<tspan x="10" y="954"></tspan>
<tspan x="10" y="970">browserTest - opened url file:///home/travis/build/npmdoc/node-npmdoc-qs/tmp/build/apidoc.html</tspan>
<tspan x="10" y="986"></tspan>
<tspan x="10" y="1002"></tspan>
<tspan x="10" y="1018">browserTest - opened url http://127.0.0.1:45256?modeTest=1</tspan>
<tspan x="10" y="1034"></tspan>
<tspan x="10" y="1050">[4854:0325/122034:INFO:CONSOLE(203)] "----------|-----------|-----------|-----------|-----------\</tspan>
<tspan x="10" y="1066">|</tspan>
<tspan x="10" y="1082">File      |   % Stmts |% Branches |   % Funcs |   % Lines |</tspan>
<tspan x="10" y="1098">----------|-----------|-----------|-----------|-----------|</tspan>
<tspan x="10" y="1114">----------|-----------|-----------|-----------|-----------|</tspan>
<tspan x="10" y="1130">All files |       100 |       100 |       100 |       100 |</tspan>
<tspan x="10" y="1146">----------|-----------|-----------|-----------|-----------|</tspan>
<tspan x="10" y="1162">", source: file:///home/travis/build/npmdoc/node-npmdoc-qs/tmp/electron.15b05692de40.4996a7f2dbe\</tspan>
<tspan x="10" y="1178">cf.html (203)</tspan>
<tspan x="10" y="1194">[4854:0325/122034:INFO:CONSOLE(203)] "created coverage file:///tmp/build/coverage.html/index.htm\</tspan>
<tspan x="10" y="1210">l", source: file:///home/travis/build/npmdoc/node-npmdoc-qs/tmp/electron.15b05692de40.4996a7f2db\</tspan>
<tspan x="10" y="1226">ecf.html (203)</tspan>
<tspan x="10" y="1242">[node test-case 4 of 6 passed] - testCase_buildApp_default</tspan>
<tspan x="10" y="1258"></tspan>
<tspan x="10" y="1274">browserTest - created screen-capture file:///home/travis/build/npmdoc/node-npmdoc-qs/tmp/build/s\</tspan>
<tspan x="10" y="1290">creen-capture.npmTest.browser._2Fhome_2Ftravis_2Fbuild_2Fnpmdoc_2Fnode-npmdoc-qs_2Ftmp_2Fbuild_2\</tspan>
<tspan x="10" y="1306">Fapidoc.html.png</tspan>
<tspan x="10" y="1322"></tspan>
<tspan x="10" y="1338"></tspan>
<tspan x="10" y="1354">browserTest - exit-code 0 - file:///home/travis/build/npmdoc/node-npmdoc-qs/tmp/build/apidoc.htm\</tspan>
<tspan x="10" y="1370">l</tspan>
<tspan x="10" y="1386"></tspan>
<tspan x="10" y="1402">[node test-case 5 of 6 passed] - testCase_buildApidoc_default</tspan>
<tspan x="10" y="1418"></tspan>
<tspan x="10" y="1434">browserTest - created screen-capture file:///home/travis/build/npmdoc/node-npmdoc-qs/tmp/build/s\</tspan>
<tspan x="10" y="1450">creen-capture.npmTest.browser..png</tspan>
<tspan x="10" y="1466"></tspan>
<tspan x="10" y="1482"></tspan>
<tspan x="10" y="1498">browserTest - exit-code 0 - http://127.0.0.1:45256?modeTest=1</tspan>
<tspan x="10" y="1514"></tspan>
<tspan x="10" y="1530"></tspan>
<tspan x="10" y="1546">browserTest - merged coverage from /home/travis/build/npmdoc/node-npmdoc-qs/tmp/coverage.npmTest\</tspan>
<tspan x="10" y="1562">.browser.%2F.json</tspan>
<tspan x="10" y="1578"></tspan>
<tspan x="10" y="1594"></tspan>
<tspan x="10" y="1610">browserTest - merging test-report from /home/travis/build/npmdoc/node-npmdoc-qs/tmp/test-report.\</tspan>
<tspan x="10" y="1626">npmTest.browser.%2F.json</tspan>
<tspan x="10" y="1642"></tspan>
<tspan x="10" y="1658">[node test-case 6 of 6 passed] - testCase_webpage_default</tspan>
<tspan x="10" y="1674">-----------------------|-----------|-----------|-----------|-----------|</tspan>
<tspan x="10" y="1690">File                   |   % Stmts |% Branches |   % Funcs |   % Lines |</tspan>
<tspan x="10" y="1706">-----------------------|-----------|-----------|-----------|-----------|</tspan>
<tspan x="10" y="1722">   node-npmdoc-qs/     |       100 |       100 |       100 |       100 |</tspan>
<tspan x="10" y="1738">      example.js       |       100 |       100 |       100 |       100 |</tspan>
<tspan x="10" y="1754">      lib.npmdoc_qs.js |       100 |       100 |       100 |       100 |</tspan>
<tspan x="10" y="1770">      test.js          |       100 |       100 |       100 |       100 |</tspan>
<tspan x="10" y="1786">-----------------------|-----------|-----------|-----------|-----------|</tspan>
<tspan x="10" y="1802">All files              |       100 |       100 |       100 |       100 |</tspan>
<tspan x="10" y="1818">-----------------------|-----------|-----------|-----------|-----------|</tspan>
<tspan x="10" y="1834"></tspan>
<tspan x="10" y="1850">created coverage file:///home/travis/build/npmdoc/node-npmdoc-qs/tmp/build/coverage.html/index.h\</tspan>
<tspan x="10" y="1866">tml</tspan>
<tspan x="10" y="1882"></tspan>
<tspan x="10" y="1898">/home/travis/build/npmdoc/node-npmdoc-qs/node_modules/utility2/lib.utility2.sh.html.js</tspan>
<tspan x="10" y="1914"> #1 Line too long.</tspan>
<tspan x="10" y="1930">    process.stdout.write('export npm_package_' + key.replace((/\W/g), '_') + '=' + JSON.stringif\</tspan>
<tspan x="10" y="1946">y(value) + ';'); // Line 1445, Pos 116</tspan>
<tspan x="10" y="1962"></tspan>
<tspan x="10" y="1978">merging file:///home/travis/build/npmdoc/node-npmdoc-qs/tmp/build/test-report.json to test-repor\</tspan>
<tspan x="10" y="1994">t</tspan>
<tspan x="10" y="2010"></tspan>
<tspan x="10" y="2026">-------------------------------------------------------</tspan>
<tspan x="10" y="2042">| test-report - buildNpmdoc - node - linux v6.10.1 - 2017-03-25T12:20:19.961Z</tspan>
<tspan x="10" y="2058">|   16248 ms            0 failed        6 passed      |</tspan>
<tspan x="10" y="2074">-------------------------------------------------------</tspan>
<tspan x="10" y="2090"></tspan>
<tspan x="10" y="2106">created test-report file:///home/travis/build/npmdoc/node-npmdoc-qs/tmp/build/test-report.html</tspan>
<tspan x="10" y="2122"></tspan>
<tspan x="10" y="2138"></tspan>
<tspan x="10" y="2154">npmTest - 0 failed tests</tspan>
<tspan x="10" y="2170"></tspan>
<tspan x="10" y="2186"></tspan>
<tspan x="10" y="2202">[MODE_BUILD=npmTest] - 2017-03-25T12:20:39Z - EXIT_CODE - 0</tspan>
</text>
</svg>
