<svg height="1950" width="720" xmlns="http://www.w3.org/2000/svg">
<rect height="1950" fill="#555" width="720"></rect>
<text fill="#7f7" font-family="Courier New" font-size="12" xml:space="preserve">
<tspan x="10" y="26"></tspan>
<tspan x="10" y="42">&gt; npmdoc-qs@0.0.1 test /home/travis/build/npmdoc/node-npmdoc-qs</tspan>
<tspan x="10" y="58">&gt; (set -e; export PORT=$(utility2 shServerPortRandom); utility2 test test.js)</tspan>
<tspan x="10" y="74"></tspan>
<tspan x="10" y="90"></tspan>
<tspan x="10" y="106">[MODE_BUILD=npmTest] - 2017-03-21T14:18:31Z - npm-testing /home/travis/build/npmdoc/node-npmdoc-\</tspan>
<tspan x="10" y="122">qs</tspan>
<tspan x="10" y="138"></tspan>
<tspan x="10" y="154"></tspan>
<tspan x="10" y="170">covering $ /home/travis/.nvm/versions/node/v7.7.3/bin/node /home/travis/build/npmdoc/node-npmdoc\</tspan>
<tspan x="10" y="186">-qs/test.js</tspan>
<tspan x="10" y="202">merging file:///home/travis/build/npmdoc/node-npmdoc-qs/tmp/build/test-report.json to test-repor\</tspan>
<tspan x="10" y="218">t</tspan>
<tspan x="10" y="234">&gt; server listening on http-port 36707</tspan>
<tspan x="10" y="250">created apidoc file:///home/travis/build/npmdoc/node-npmdoc-qs/tmp/build/apidoc.html</tspan>
<tspan x="10" y="266"></tspan>
<tspan x="10" y="282"></tspan>
<tspan x="10" y="298">browserTest - created electron entry-page /home/travis/build/npmdoc/node-npmdoc-qs/tmp/electron.\</tspan>
<tspan x="10" y="314">15af13bca3e0.819aa5a8113fe.html</tspan>
<tspan x="10" y="330"></tspan>
<tspan x="10" y="346">[node test-case 1 of 6 passed] - testCase_buildLib_default</tspan>
<tspan x="10" y="362">[node test-case 2 of 6 passed] - testCase_buildReadme_default</tspan>
<tspan x="10" y="378">[node test-case 3 of 6 passed] - testCase_buildTest_default</tspan>
<tspan x="10" y="394"></tspan>
<tspan x="10" y="410">browserTest - created electron entry-page /home/travis/build/npmdoc/node-npmdoc-qs/tmp/electron.\</tspan>
<tspan x="10" y="426">15af13bca8a0.133ff0b8533e6.html</tspan>
<tspan x="10" y="442"></tspan>
<tspan x="10" y="458">(node:4995) DeprecationWarning: node --debug is deprecated. Please use node --inspect instead.</tspan>
<tspan x="10" y="474">Xlib:  extension "RANDR" missing on display ":99.0".</tspan>
<tspan x="10" y="490">Xlib:  extension "RANDR" missing on display ":99.0".</tspan>
<tspan x="10" y="506">&gt; server listening on http-port 36686</tspan>
<tspan x="10" y="522">merging file:///home/travis/build/npmdoc/node-npmdoc-qs/tmp/build/test-report.json to test-repor\</tspan>
<tspan x="10" y="538">t</tspan>
<tspan x="10" y="554">Xlib:  extension "RANDR" missing on display ":99.0".</tspan>
<tspan x="10" y="570">[5027:0321/141832:WARNING:audio_manager.cc(314)] Multiple instances of AudioManager detected</tspan>
<tspan x="10" y="586">[5027:0321/141832:WARNING:audio_manager.cc(275)] Multiple instances of AudioManager detected</tspan>
<tspan x="10" y="602">merging file:///home/travis/build/npmdoc/node-npmdoc-qs/tmp/build/test-report.json to test-repor\</tspan>
<tspan x="10" y="618">t</tspan>
<tspan x="10" y="634">Xlib:  extension "RANDR" missing on display ":99.0".</tspan>
<tspan x="10" y="650">[5052:0321/141833:ERROR:sandbox_linux.cc(343)] InitializeSandbox() called with multiple threads \</tspan>
<tspan x="10" y="666">in process gpu-process. </tspan>
<tspan x="10" y="682">[5026:0321/141833:WARNING:audio_manager.cc(314)] Multiple instances of AudioManager detected</tspan>
<tspan x="10" y="698">[5026:0321/141833:WARNING:audio_manager.cc(275)] Multiple instances of AudioManager detected</tspan>
<tspan x="10" y="714">[5027:0321/141833:ERROR:browser_gpu_channel_host_factory.cc(131)] Failed to create channel.</tspan>
<tspan x="10" y="730">[5077:0321/141833:ERROR:sandbox_linux.cc(343)] InitializeSandbox() called with multiple threads \</tspan>
<tspan x="10" y="746">in process gpu-process. </tspan>
<tspan x="10" y="762">[5026:0321/141833:ERROR:browser_gpu_channel_host_factory.cc(131)] Failed to create channel.</tspan>
<tspan x="10" y="778"></tspan>
<tspan x="10" y="794">browserTest - opened url http://127.0.0.1:36707?modeTest=1</tspan>
<tspan x="10" y="810"></tspan>
<tspan x="10" y="826"></tspan>
<tspan x="10" y="842">browserTest - opened url file:///home/travis/build/npmdoc/node-npmdoc-qs/tmp/build/apidoc.html</tspan>
<tspan x="10" y="858"></tspan>
<tspan x="10" y="874">[5027:0321/141835:INFO:CONSOLE(203)] "----------|-----------|-----------|-----------|-----------\</tspan>
<tspan x="10" y="890">|</tspan>
<tspan x="10" y="906">File      |   % Stmts |% Branches |   % Funcs |   % Lines |</tspan>
<tspan x="10" y="922">----------|-----------|-----------|-----------|-----------|</tspan>
<tspan x="10" y="938">----------|-----------|-----------|-----------|-----------|</tspan>
<tspan x="10" y="954">All files |       100 |       100 |       100 |       100 |</tspan>
<tspan x="10" y="970">----------|-----------|-----------|-----------|-----------|</tspan>
<tspan x="10" y="986">", source: file:///home/travis/build/npmdoc/node-npmdoc-qs/tmp/electron.15af13bca8a0.133ff0b8533\</tspan>
<tspan x="10" y="1002">e6.html (203)</tspan>
<tspan x="10" y="1018">[5027:0321/141835:INFO:CONSOLE(203)] "created coverage file:///tmp/build/coverage.html/index.htm\</tspan>
<tspan x="10" y="1034">l", source: file:///home/travis/build/npmdoc/node-npmdoc-qs/tmp/electron.15af13bca8a0.133ff0b853\</tspan>
<tspan x="10" y="1050">3e6.html (203)</tspan>
<tspan x="10" y="1066">[node test-case 4 of 6 passed] - testCase_buildApp_default</tspan>
<tspan x="10" y="1082"></tspan>
<tspan x="10" y="1098">browserTest - created screen-capture file:///home/travis/build/npmdoc/node-npmdoc-qs/tmp/build/s\</tspan>
<tspan x="10" y="1114">creen-capture.npmTest.browser._2Fhome_2Ftravis_2Fbuild_2Fnpmdoc_2Fnode-npmdoc-qs_2Ftmp_2Fbuild_2\</tspan>
<tspan x="10" y="1130">Fapidoc.html.png</tspan>
<tspan x="10" y="1146"></tspan>
<tspan x="10" y="1162"></tspan>
<tspan x="10" y="1178">browserTest - created screen-capture file:///home/travis/build/npmdoc/node-npmdoc-qs/tmp/build/s\</tspan>
<tspan x="10" y="1194">creen-capture.npmTest.browser..png</tspan>
<tspan x="10" y="1210"></tspan>
<tspan x="10" y="1226"></tspan>
<tspan x="10" y="1242">browserTest - exit-code 0 - file:///home/travis/build/npmdoc/node-npmdoc-qs/tmp/build/apidoc.htm\</tspan>
<tspan x="10" y="1258">l</tspan>
<tspan x="10" y="1274"></tspan>
<tspan x="10" y="1290">[node test-case 5 of 6 passed] - testCase_buildApidoc_default</tspan>
<tspan x="10" y="1306"></tspan>
<tspan x="10" y="1322">browserTest - exit-code 0 - http://127.0.0.1:36707?modeTest=1</tspan>
<tspan x="10" y="1338"></tspan>
<tspan x="10" y="1354"></tspan>
<tspan x="10" y="1370">browserTest - merged coverage from /home/travis/build/npmdoc/node-npmdoc-qs/tmp/coverage.npmTest\</tspan>
<tspan x="10" y="1386">.browser.%2F.json</tspan>
<tspan x="10" y="1402"></tspan>
<tspan x="10" y="1418"></tspan>
<tspan x="10" y="1434">browserTest - merging test-report from /home/travis/build/npmdoc/node-npmdoc-qs/tmp/test-report.\</tspan>
<tspan x="10" y="1450">npmTest.browser.%2F.json</tspan>
<tspan x="10" y="1466"></tspan>
<tspan x="10" y="1482">[node test-case 6 of 6 passed] - testCase_webpage_default</tspan>
<tspan x="10" y="1498">-----------------------|-----------|-----------|-----------|-----------|</tspan>
<tspan x="10" y="1514">File                   |   % Stmts |% Branches |   % Funcs |   % Lines |</tspan>
<tspan x="10" y="1530">-----------------------|-----------|-----------|-----------|-----------|</tspan>
<tspan x="10" y="1546">   node-npmdoc-qs/     |       100 |       100 |       100 |       100 |</tspan>
<tspan x="10" y="1562">      example.js       |       100 |       100 |       100 |       100 |</tspan>
<tspan x="10" y="1578">      lib.npmdoc_qs.js |       100 |       100 |       100 |       100 |</tspan>
<tspan x="10" y="1594">      test.js          |       100 |       100 |       100 |       100 |</tspan>
<tspan x="10" y="1610">-----------------------|-----------|-----------|-----------|-----------|</tspan>
<tspan x="10" y="1626">All files              |       100 |       100 |       100 |       100 |</tspan>
<tspan x="10" y="1642">-----------------------|-----------|-----------|-----------|-----------|</tspan>
<tspan x="10" y="1658"></tspan>
<tspan x="10" y="1674">created coverage file:///home/travis/build/npmdoc/node-npmdoc-qs/tmp/build/coverage.html/index.h\</tspan>
<tspan x="10" y="1690">tml</tspan>
<tspan x="10" y="1706">merging file:///home/travis/build/npmdoc/node-npmdoc-qs/tmp/build/test-report.json to test-repor\</tspan>
<tspan x="10" y="1722">t</tspan>
<tspan x="10" y="1738"></tspan>
<tspan x="10" y="1754">-------------------------------------------------------</tspan>
<tspan x="10" y="1770">| test-report - buildNpmdoc - node - linux v7.7.3 - 2017-03-21T14:18:21.478Z</tspan>
<tspan x="10" y="1786">|   15884 ms            0 failed        6 passed      |</tspan>
<tspan x="10" y="1802">-------------------------------------------------------</tspan>
<tspan x="10" y="1818"></tspan>
<tspan x="10" y="1834">created test-report file:///home/travis/build/npmdoc/node-npmdoc-qs/tmp/build/test-report.html</tspan>
<tspan x="10" y="1850"></tspan>
<tspan x="10" y="1866"></tspan>
<tspan x="10" y="1882">npmTest - 0 failed tests</tspan>
<tspan x="10" y="1898"></tspan>
<tspan x="10" y="1914"></tspan>
<tspan x="10" y="1930">[MODE_BUILD=npmTest] - 2017-03-21T14:18:40Z - EXIT_CODE - 0</tspan>
</text>
</svg>
